<svg width="459" height="147" viewBox="0 0 459 147" fill="none" xmlns="http://www.w3.org/2000/svg">
<rect width="459" height="147" rx="72" fill="#F0F4FF"/>
<path d="M100.186 109.957C105.296 106.184 109.62 101.449 112.909 96.023C116.198 90.5968 118.388 84.5854 119.355 78.332C120.322 72.0786 120.046 65.7057 118.544 59.5771C117.041 53.4485 114.341 47.6842 110.598 42.6134C106.854 37.5427 102.141 33.2646 96.7267 30.0236C91.3125 26.7827 85.3034 24.6422 79.0426 23.7244C72.7819 22.8066 66.3919 23.1295 60.2377 24.6747C54.0835 26.2198 48.2855 28.957 43.1748 32.7298L46.6093 37.3822C51.1042 34.0639 56.2036 31.6566 61.6164 30.2976C67.0291 28.9386 72.6491 28.6546 78.1556 29.4618C83.662 30.269 88.9471 32.1516 93.7089 35.0021C98.4708 37.8526 102.616 41.6151 105.909 46.075C109.201 50.5348 111.576 55.6046 112.897 60.9948C114.219 66.385 114.462 71.99 113.611 77.49C112.761 82.9899 110.834 88.2771 107.941 93.0494C105.048 97.8218 101.246 101.986 96.751 105.304L100.186 109.957Z" fill="#E7B036"/>
<path d="M108.197 100.285C110.212 103.014 109.633 106.86 106.903 108.875C104.174 110.89 100.328 110.311 98.313 107.582C96.298 104.852 96.8766 101.006 99.6061 98.9907C102.336 96.9757 106.182 97.555 108.197 100.285Z" fill="white" stroke="#E7B036" stroke-width="3.2163"/>
<path d="M39.8154 37.0883C34.7047 40.8612 30.3814 45.5959 27.0922 51.022C23.8031 56.4482 21.6125 62.4596 20.6457 68.713C19.6788 74.9664 19.9546 81.3393 21.4572 87.4679C22.9599 93.5966 25.6599 99.3608 29.4033 104.432C33.1467 109.502 37.8601 113.78 43.2743 117.021C48.6885 120.262 54.6975 122.403 60.9583 123.321C67.2191 124.238 73.609 123.916 79.7633 122.37C85.9175 120.825 91.7155 118.088 96.8262 114.315L93.3917 109.663C88.8967 112.981 83.7973 115.388 78.3846 116.747C72.9719 118.106 67.3519 118.39 61.8454 117.583C56.339 116.776 51.0539 114.893 46.292 112.043C41.5301 109.192 37.3847 105.43 34.0923 100.97C30.8 96.5102 28.4252 91.4405 27.1036 86.0503C25.782 80.6601 25.5395 75.055 26.3898 69.5551C27.2402 64.0551 29.1668 58.768 32.0597 53.9956C34.9525 49.2232 38.755 45.059 43.2499 41.7407L39.8154 37.0883Z" fill="#100287"/>
<path d="M31.804 46.7605C29.7891 44.0309 30.3689 40.1848 33.0984 38.1698C35.8279 36.155 39.6735 36.7341 41.6885 39.4635C43.7035 42.193 43.1249 46.0393 40.3954 48.0543C37.6658 50.0694 33.819 49.49 31.804 46.7605Z" fill="white" stroke="#100287" stroke-width="3.2163"/>
<path d="M86.4388 39.7812L62.7186 57.0689L102.118 75.9646L56.688 110.942" stroke="#E7B036" stroke-width="4.82445"/>
<path d="M81.2122 33.7507L45.0288 59.8832L82.4183 78.7789L46.637 106.922" stroke="#100287" stroke-width="4.82445"/>
<path d="M167.555 99.1705C164.531 99.1705 161.819 98.6665 159.419 97.6585C157.019 96.6025 155.123 95.1625 153.731 93.3385C152.339 91.4665 151.571 89.3305 151.427 86.9305H158.195C158.387 88.8985 159.299 90.5065 160.931 91.7545C162.611 93.0025 164.795 93.6265 167.483 93.6265C169.979 93.6265 171.947 93.0745 173.387 91.9705C174.827 90.8665 175.547 89.4745 175.547 87.7945C175.547 86.0665 174.779 84.7945 173.243 83.9785C171.707 83.1145 169.331 82.2745 166.115 81.4585C163.187 80.6905 160.787 79.9225 158.915 79.1545C157.091 78.3385 155.507 77.1625 154.163 75.6265C152.867 74.0425 152.219 71.9785 152.219 69.4345C152.219 67.4185 152.819 65.5705 154.019 63.8905C155.219 62.2105 156.923 60.8905 159.131 59.9305C161.339 58.9225 163.859 58.4185 166.691 58.4185C171.059 58.4185 174.587 59.5225 177.275 61.7305C179.963 63.9385 181.403 66.9625 181.595 70.8025H175.043C174.899 68.7385 174.059 67.0825 172.523 65.8345C171.035 64.5865 169.019 63.9625 166.475 63.9625C164.123 63.9625 162.251 64.4665 160.859 65.4745C159.467 66.4825 158.771 67.8025 158.771 69.4345C158.771 70.7305 159.179 71.8105 159.995 72.6745C160.859 73.4905 161.915 74.1625 163.163 74.6905C164.459 75.1705 166.235 75.7225 168.491 76.3465C171.323 77.1145 173.627 77.8825 175.403 78.6505C177.179 79.3705 178.691 80.4745 179.939 81.9625C181.235 83.4505 181.907 85.3945 181.955 87.7945C181.955 89.9545 181.355 91.8985 180.155 93.6265C178.955 95.3545 177.251 96.7225 175.043 97.7305C172.883 98.6905 170.387 99.1705 167.555 99.1705ZM188.757 78.6505C188.757 74.6185 189.573 71.0905 191.205 68.0665C192.837 64.9945 195.069 62.6185 197.901 60.9385C200.781 59.2585 203.973 58.4185 207.477 58.4185C210.933 58.4185 213.933 59.1625 216.477 60.6505C219.021 62.1385 220.917 64.0105 222.165 66.2665V59.0665H228.789V98.5225H222.165V91.1785C220.869 93.4825 218.925 95.4025 216.333 96.9385C213.789 98.4265 210.813 99.1705 207.405 99.1705C203.901 99.1705 200.733 98.3065 197.901 96.5785C195.069 94.8505 192.837 92.4265 191.205 89.3065C189.573 86.1865 188.757 82.6345 188.757 78.6505ZM222.165 78.7225C222.165 75.7465 221.565 73.1545 220.365 70.9465C219.165 68.7385 217.533 67.0585 215.469 65.9065C213.453 64.7065 211.221 64.1065 208.773 64.1065C206.325 64.1065 204.093 64.6825 202.077 65.8345C200.061 66.9865 198.453 68.6665 197.253 70.8745C196.053 73.0825 195.453 75.6745 195.453 78.6505C195.453 81.6745 196.053 84.3145 197.253 86.5705C198.453 88.7785 200.061 90.4825 202.077 91.6825C204.093 92.8345 206.325 93.4105 208.773 93.4105C211.221 93.4105 213.453 92.8345 215.469 91.6825C217.533 90.4825 219.165 88.7785 220.365 86.5705C221.565 84.3145 222.165 81.6985 222.165 78.7225ZM255.917 64.4665H247.637V98.5225H241.085V64.4665H235.973V59.0665H241.085V56.2585C241.085 51.8425 242.213 48.6265 244.469 46.6105C246.773 44.5465 250.445 43.5145 255.485 43.5145V48.9865C252.605 48.9865 250.565 49.5625 249.365 50.7145C248.213 51.8185 247.637 53.6665 247.637 56.2585V59.0665H255.917V64.4665ZM299.556 77.2825C299.556 78.5305 299.484 79.8505 299.34 81.2425H267.804C268.044 85.1305 269.364 88.1785 271.764 90.3865C274.212 92.5465 277.164 93.6265 280.62 93.6265C283.452 93.6265 285.804 92.9785 287.676 91.6825C289.596 90.3385 290.94 88.5625 291.708 86.3545H298.764C297.708 90.1465 295.596 93.2425 292.428 95.6425C289.26 97.9945 285.324 99.1705 280.62 99.1705C276.876 99.1705 273.516 98.3305 270.54 96.6505C267.612 94.9705 265.308 92.5945 263.628 89.5225C261.948 86.4025 261.108 82.8025 261.108 78.7225C261.108 74.6425 261.924 71.0665 263.556 67.9945C265.188 64.9225 267.468 62.5705 270.396 60.9385C273.372 59.2585 276.78 58.4185 280.62 58.4185C284.364 58.4185 287.676 59.2345 290.556 60.8665C293.436 62.4985 295.644 64.7545 297.18 67.6345C298.764 70.4665 299.556 73.6825 299.556 77.2825ZM292.788 75.9145C292.788 73.4185 292.236 71.2825 291.132 69.5065C290.028 67.6825 288.516 66.3145 286.596 65.4025C284.724 64.4425 282.636 63.9625 280.332 63.9625C277.02 63.9625 274.188 65.0185 271.836 67.1305C269.532 69.2425 268.212 72.1705 267.876 75.9145H292.788ZM316.197 64.4665V87.7225C316.197 89.6425 316.605 91.0105 317.421 91.8265C318.237 92.5945 319.653 92.9785 321.669 92.9785H326.493V98.5225H320.589C316.941 98.5225 314.205 97.6825 312.381 96.0025C310.557 94.3225 309.645 91.5625 309.645 87.7225V64.4665H304.533V59.0665H309.645V49.1305H316.197V59.0665H326.493V64.4665H316.197ZM331.983 78.6505C331.983 74.6185 332.799 71.0905 334.431 68.0665C336.063 64.9945 338.295 62.6185 341.127 60.9385C344.007 59.2585 347.199 58.4185 350.703 58.4185C354.159 58.4185 357.159 59.1625 359.703 60.6505C362.247 62.1385 364.143 64.0105 365.391 66.2665V59.0665H372.015V98.5225H365.391V91.1785C364.095 93.4825 362.151 95.4025 359.559 96.9385C357.015 98.4265 354.039 99.1705 350.631 99.1705C347.127 99.1705 343.959 98.3065 341.127 96.5785C338.295 94.8505 336.063 92.4265 334.431 89.3065C332.799 86.1865 331.983 82.6345 331.983 78.6505ZM365.391 78.7225C365.391 75.7465 364.791 73.1545 363.591 70.9465C362.391 68.7385 360.759 67.0585 358.695 65.9065C356.679 64.7065 354.447 64.1065 351.999 64.1065C349.551 64.1065 347.319 64.6825 345.303 65.8345C343.287 66.9865 341.679 68.6665 340.479 70.8745C339.279 73.0825 338.679 75.6745 338.679 78.6505C338.679 81.6745 339.279 84.3145 340.479 86.5705C341.679 88.7785 343.287 90.4825 345.303 91.6825C347.319 92.8345 349.551 93.4105 351.999 93.4105C354.447 93.4105 356.679 92.8345 358.695 91.6825C360.759 90.4825 362.391 88.7785 363.591 86.5705C364.791 84.3145 365.391 81.6985 365.391 78.7225ZM399.143 64.4665H390.863V98.5225H384.311V64.4665H379.199V59.0665H384.311V56.2585C384.311 51.8425 385.439 48.6265 387.695 46.6105C389.999 44.5465 393.671 43.5145 398.711 43.5145V48.9865C395.831 48.9865 393.791 49.5625 392.591 50.7145C391.439 51.8185 390.863 53.6665 390.863 56.2585V59.0665H399.143V64.4665ZM410.167 52.6585C408.919 52.6585 407.863 52.2265 406.999 51.3625C406.135 50.4985 405.703 49.4425 405.703 48.1945C405.703 46.9465 406.135 45.8905 406.999 45.0265C407.863 44.1625 408.919 43.7305 410.167 43.7305C411.367 43.7305 412.375 44.1625 413.191 45.0265C414.055 45.8905 414.487 46.9465 414.487 48.1945C414.487 49.4425 414.055 50.4985 413.191 51.3625C412.375 52.2265 411.367 52.6585 410.167 52.6585ZM413.335 59.0665V98.5225H406.783V59.0665H413.335Z" fill="black"/>
<line y1="72.5" x2="16" y2="72.5" stroke="#100287"/>
</svg>
