<svg width="492" height="139" viewBox="0 0 492 139" fill="none" xmlns="http://www.w3.org/2000/svg">
<g clip-path="url(#clip0_785_389)">
<path d="M109.273 38.8522C112.985 43.88 115.663 49.5954 117.153 55.6722C118.643 61.7491 118.916 68.0691 117.957 74.2702C116.999 80.4715 114.826 86.4338 111.565 91.815C108.372 97.0818 104.195 101.689 99.2666 105.391L96.3097 101.386C100.707 98.0764 104.433 93.9606 107.284 89.2577C110.204 84.4404 112.15 79.1036 113.008 73.5514C113.867 67.9995 113.621 62.3412 112.287 56.8996C110.953 51.4578 108.556 46.3384 105.232 41.8357C101.908 37.3332 97.722 33.5352 92.9147 30.6575C88.1073 27.7798 82.7724 25.8788 77.2138 25.0639C71.6551 24.249 65.9813 24.5359 60.5177 25.9077C55.1839 27.2469 50.1535 29.5972 45.6961 32.8243L42.7393 28.8189C47.7283 25.1995 53.3615 22.5646 59.335 21.0648C65.4383 19.5324 71.7754 19.2118 77.9839 20.1219C84.1925 21.0321 90.1514 23.1546 95.5201 26.3683C100.889 29.582 105.562 33.8244 109.273 38.8522Z" fill="#E7B036" stroke="#E7B036" stroke-width="0.804075"/>
<path d="M107.197 96.2846C109.212 99.0141 108.632 102.86 105.903 104.875C103.173 106.89 99.3275 106.311 97.3125 103.582C95.2975 100.852 95.8761 97.0058 98.6056 94.9907C101.335 92.9757 105.182 93.555 107.197 96.2846Z" fill="white" stroke="#E7B036" stroke-width="3.2163"/>
<path d="M38.815 33.0883C33.7042 36.8612 29.3809 41.5959 26.0917 47.022C22.8026 52.4482 20.612 58.4596 19.6452 64.713C18.6783 70.9664 18.9541 77.3393 20.4567 83.4679C21.9594 89.5966 24.6595 95.3608 28.4028 100.432C32.1462 105.502 36.8596 109.78 42.2738 113.021C47.688 116.262 53.6971 118.403 59.9578 119.321C66.2186 120.238 72.6086 119.916 78.7628 118.37C84.917 116.825 90.715 114.088 95.8257 110.315L92.3912 105.663C87.8963 108.981 82.7968 111.388 77.3841 112.747C71.9714 114.106 66.3514 114.39 60.8449 113.583C55.3385 112.776 50.0534 110.893 45.2915 108.043C40.5297 105.192 36.3842 101.43 33.0918 96.9701C29.7995 92.5102 27.4247 87.4405 26.1031 82.0503C24.7815 76.6601 24.539 71.055 25.3893 65.555C26.2397 60.0551 28.1663 54.768 31.0592 49.9956C33.952 45.2232 37.7545 41.059 42.2495 37.7407L38.815 33.0883Z" fill="#100287"/>
<path d="M30.8035 42.7605C28.7886 40.0309 29.3684 36.1848 32.0979 34.1698C34.8275 32.155 38.673 32.7341 40.688 35.4635C42.703 38.193 42.1244 42.0393 39.3949 44.0543C36.6654 46.0694 32.8185 45.49 30.8035 42.7605Z" fill="white" stroke="#100287" stroke-width="3.2163"/>
<path d="M85.4383 35.7812L61.7181 53.0689L101.118 71.9646L55.6875 106.942" stroke="#E7B036" stroke-width="4.82445"/>
<path d="M80.2117 29.7507L44.0283 55.8832L81.4178 74.7789L45.6365 102.922" stroke="#100287" stroke-width="4.82445"/>
<path d="M154.069 89.81C150.289 89.81 146.899 89.18 143.899 87.92C140.899 86.6 138.529 84.8 136.789 82.52C135.049 80.18 134.089 77.51 133.909 74.51H142.369C142.609 76.97 143.749 78.98 145.789 80.54C147.889 82.1 150.619 82.88 153.979 82.88C157.099 82.88 159.559 82.19 161.359 80.81C163.159 79.43 164.059 77.69 164.059 75.59C164.059 73.43 163.099 71.84 161.179 70.82C159.259 69.74 156.289 68.69 152.269 67.67C148.609 66.71 145.609 65.75 143.269 64.79C140.989 63.77 139.009 62.3 137.329 60.38C135.709 58.4 134.899 55.82 134.899 52.64C134.899 50.12 135.649 47.81 137.149 45.71C138.649 43.61 140.779 41.96 143.539 40.76C146.299 39.5 149.449 38.87 152.989 38.87C158.449 38.87 162.859 40.25 166.219 43.01C169.579 45.77 171.379 49.55 171.619 54.35H163.429C163.249 51.77 162.199 49.7 160.279 48.14C158.419 46.58 155.899 45.8 152.719 45.8C149.779 45.8 147.439 46.43 145.699 47.69C143.959 48.95 143.089 50.6 143.089 52.64C143.089 54.26 143.599 55.61 144.619 56.69C145.699 57.71 147.019 58.55 148.579 59.21C150.199 59.81 152.419 60.5 155.239 61.28C158.779 62.24 161.659 63.2 163.879 64.16C166.099 65.06 167.989 66.44 169.549 68.3C171.169 70.16 172.009 72.59 172.069 75.59C172.069 78.29 171.319 80.72 169.819 82.88C168.319 85.04 166.189 86.75 163.429 88.01C160.729 89.21 157.609 89.81 154.069 89.81ZM180.57 64.16C180.57 59.12 181.59 54.71 183.63 50.93C185.67 47.09 188.46 44.12 192 42.02C195.6 39.92 199.59 38.87 203.97 38.87C208.29 38.87 212.04 39.8 215.22 41.66C218.4 43.52 220.77 45.86 222.33 48.68V39.68H230.61V89H222.33V79.82C220.71 82.7 218.28 85.1 215.04 87.02C211.86 88.88 208.14 89.81 203.88 89.81C199.5 89.81 195.54 88.73 192 86.57C188.46 84.41 185.67 81.38 183.63 77.48C181.59 73.58 180.57 69.14 180.57 64.16ZM222.33 64.25C222.33 60.53 221.58 57.29 220.08 54.53C218.58 51.77 216.54 49.67 213.96 48.23C211.44 46.73 208.65 45.98 205.59 45.98C202.53 45.98 199.74 46.7 197.22 48.14C194.7 49.58 192.69 51.68 191.19 54.44C189.69 57.2 188.94 60.44 188.94 64.16C188.94 67.94 189.69 71.24 191.19 74.06C192.69 76.82 194.7 78.95 197.22 80.45C199.74 81.89 202.53 82.61 205.59 82.61C208.65 82.61 211.44 81.89 213.96 80.45C216.54 78.95 218.58 76.82 220.08 74.06C221.58 71.24 222.33 67.97 222.33 64.25ZM264.521 46.43H254.171V89H245.981V46.43H239.591V39.68H245.981V36.17C245.981 30.65 247.391 26.63 250.211 24.11C253.091 21.53 257.681 20.24 263.981 20.24V27.08C260.381 27.08 257.831 27.8 256.331 29.24C254.891 30.62 254.171 32.93 254.171 36.17V39.68H264.521V46.43ZM319.07 62.45C319.07 64.01 318.98 65.66 318.8 67.4H279.38C279.68 72.26 281.33 76.07 284.33 78.83C287.39 81.53 291.08 82.88 295.4 82.88C298.94 82.88 301.88 82.07 304.22 80.45C306.62 78.77 308.3 76.55 309.26 73.79H318.08C316.76 78.53 314.12 82.4 310.16 85.4C306.2 88.34 301.28 89.81 295.4 89.81C290.72 89.81 286.52 88.76 282.8 86.66C279.14 84.56 276.26 81.59 274.16 77.75C272.06 73.85 271.01 69.35 271.01 64.25C271.01 59.15 272.03 54.68 274.07 50.84C276.11 47 278.96 44.06 282.62 42.02C286.34 39.92 290.6 38.87 295.4 38.87C300.08 38.87 304.22 39.89 307.82 41.93C311.42 43.97 314.18 46.79 316.1 50.39C318.08 53.93 319.07 57.95 319.07 62.45ZM310.61 60.74C310.61 57.62 309.92 54.95 308.54 52.73C307.16 50.45 305.27 48.74 302.87 47.6C300.53 46.4 297.92 45.8 295.04 45.8C290.9 45.8 287.36 47.12 284.42 49.76C281.54 52.4 279.89 56.06 279.47 60.74H310.61ZM339.87 46.43V75.5C339.87 77.9 340.38 79.61 341.4 80.63C342.42 81.59 344.19 82.07 346.71 82.07H352.74V89H345.36C340.8 89 337.38 87.95 335.1 85.85C332.82 83.75 331.68 80.3 331.68 75.5V46.43H325.29V39.68H331.68V27.26H339.87V39.68H352.74V46.43H339.87ZM359.603 64.16C359.603 59.12 360.623 54.71 362.663 50.93C364.703 47.09 367.493 44.12 371.033 42.02C374.633 39.92 378.623 38.87 383.003 38.87C387.323 38.87 391.073 39.8 394.253 41.66C397.433 43.52 399.803 45.86 401.363 48.68V39.68H409.643V89H401.363V79.82C399.743 82.7 397.313 85.1 394.073 87.02C390.893 88.88 387.173 89.81 382.913 89.81C378.533 89.81 374.573 88.73 371.033 86.57C367.493 84.41 364.703 81.38 362.663 77.48C360.623 73.58 359.603 69.14 359.603 64.16ZM401.363 64.25C401.363 60.53 400.613 57.29 399.113 54.53C397.613 51.77 395.573 49.67 392.993 48.23C390.473 46.73 387.683 45.98 384.623 45.98C381.563 45.98 378.773 46.7 376.253 48.14C373.733 49.58 371.723 51.68 370.223 54.44C368.723 57.2 367.973 60.44 367.973 64.16C367.973 67.94 368.723 71.24 370.223 74.06C371.723 76.82 373.733 78.95 376.253 80.45C378.773 81.89 381.563 82.61 384.623 82.61C387.683 82.61 390.473 81.89 392.993 80.45C395.573 78.95 397.613 76.82 399.113 74.06C400.613 71.24 401.363 67.97 401.363 64.25ZM443.554 46.43H433.204V89H425.014V46.43H418.624V39.68H425.014V36.17C425.014 30.65 426.424 26.63 429.244 24.11C432.124 21.53 436.714 20.24 443.014 20.24V27.08C439.414 27.08 436.864 27.8 435.364 29.24C433.924 30.62 433.204 32.93 433.204 36.17V39.68H443.554V46.43ZM457.333 31.67C455.773 31.67 454.453 31.13 453.373 30.05C452.293 28.97 451.753 27.65 451.753 26.09C451.753 24.53 452.293 23.21 453.373 22.13C454.453 21.05 455.773 20.51 457.333 20.51C458.833 20.51 460.093 21.05 461.113 22.13C462.193 23.21 462.733 24.53 462.733 26.09C462.733 27.65 462.193 28.97 461.113 30.05C460.093 31.13 458.833 31.67 457.333 31.67ZM461.293 39.68V89H453.103V39.68H461.293Z" fill="black"/>
<rect x="120" y="102" width="358" height="28" rx="14" fill="#F27308"/>
<path d="M138.466 110.017V108.455H149.375V110.017H144.801V123H143.04V110.017H138.466ZM154.093 123V108.455H159.008C160.145 108.455 161.077 108.649 161.806 109.037C162.536 109.42 163.075 109.948 163.426 110.621C163.776 111.293 163.951 112.058 163.951 112.915C163.951 113.772 163.776 114.532 163.426 115.195C163.075 115.857 162.538 116.378 161.814 116.757C161.089 117.131 160.163 117.318 159.037 117.318H155.059V115.727H158.98C159.756 115.727 160.381 115.614 160.855 115.386C161.333 115.159 161.679 114.837 161.892 114.42C162.109 113.999 162.218 113.497 162.218 112.915C162.218 112.332 162.109 111.823 161.892 111.388C161.674 110.952 161.326 110.616 160.848 110.379C160.369 110.138 159.737 110.017 158.951 110.017H155.855V123H154.093ZM160.94 116.466L164.52 123H162.474L158.951 116.466H160.94ZM169.483 123H167.636L172.977 108.455H174.795L180.136 123H178.29L173.943 110.756H173.83L169.483 123ZM170.165 117.318H177.608V118.881H170.165V117.318ZM195.936 108.455V123H194.232L186.305 111.58H186.163V123H184.402V108.455H186.107L194.061 119.903H194.203V108.455H195.936ZM209.415 112.091C209.33 111.371 208.984 110.812 208.378 110.415C207.772 110.017 207.029 109.818 206.148 109.818C205.504 109.818 204.941 109.922 204.458 110.131C203.98 110.339 203.605 110.625 203.336 110.99C203.07 111.355 202.938 111.769 202.938 112.233C202.938 112.621 203.03 112.955 203.215 113.234C203.404 113.509 203.646 113.739 203.939 113.923C204.233 114.103 204.541 114.252 204.863 114.371C205.185 114.484 205.48 114.577 205.75 114.648L207.228 115.045C207.606 115.145 208.028 115.282 208.492 115.457C208.961 115.633 209.408 115.872 209.834 116.175C210.265 116.473 210.62 116.857 210.9 117.325C211.179 117.794 211.319 118.369 211.319 119.051C211.319 119.837 211.113 120.547 210.701 121.182C210.293 121.816 209.697 122.321 208.911 122.695C208.13 123.069 207.18 123.256 206.063 123.256C205.021 123.256 204.119 123.088 203.357 122.751C202.599 122.415 202.003 121.946 201.567 121.345C201.136 120.744 200.892 120.045 200.836 119.25H202.654C202.701 119.799 202.886 120.254 203.208 120.614C203.534 120.969 203.946 121.234 204.444 121.409C204.945 121.58 205.485 121.665 206.063 121.665C206.735 121.665 207.339 121.556 207.874 121.338C208.409 121.116 208.833 120.808 209.145 120.415C209.458 120.017 209.614 119.553 209.614 119.023C209.614 118.54 209.479 118.147 209.209 117.844C208.939 117.541 208.584 117.295 208.144 117.105C207.703 116.916 207.228 116.75 206.716 116.608L204.926 116.097C203.79 115.77 202.891 115.304 202.228 114.697C201.565 114.091 201.233 113.298 201.233 112.318C201.233 111.504 201.453 110.794 201.894 110.188C202.339 109.577 202.935 109.103 203.684 108.767C204.436 108.426 205.277 108.256 206.205 108.256C207.142 108.256 207.976 108.424 208.705 108.76C209.434 109.091 210.012 109.546 210.438 110.124C210.869 110.701 211.096 111.357 211.12 112.091H209.415ZM216.214 123V108.455H221.129C222.27 108.455 223.203 108.661 223.928 109.072C224.657 109.48 225.196 110.031 225.547 110.727C225.897 111.423 226.072 112.2 226.072 113.057C226.072 113.914 225.897 114.693 225.547 115.393C225.201 116.094 224.666 116.653 223.942 117.07C223.217 117.482 222.289 117.688 221.158 117.688H217.635V116.125H221.101C221.882 116.125 222.509 115.99 222.983 115.72C223.456 115.45 223.8 115.086 224.013 114.626C224.231 114.162 224.339 113.639 224.339 113.057C224.339 112.474 224.231 111.954 224.013 111.494C223.8 111.035 223.454 110.675 222.976 110.415C222.498 110.15 221.863 110.017 221.072 110.017H217.976V123H216.214ZM243.183 115.727C243.183 117.261 242.906 118.587 242.352 119.705C241.798 120.822 241.038 121.684 240.072 122.29C239.106 122.896 238.003 123.199 236.762 123.199C235.522 123.199 234.418 122.896 233.452 122.29C232.487 121.684 231.727 120.822 231.173 119.705C230.619 118.587 230.342 117.261 230.342 115.727C230.342 114.193 230.619 112.867 231.173 111.75C231.727 110.633 232.487 109.771 233.452 109.165C234.418 108.559 235.522 108.256 236.762 108.256C238.003 108.256 239.106 108.559 240.072 109.165C241.038 109.771 241.798 110.633 242.352 111.75C242.906 112.867 243.183 114.193 243.183 115.727ZM241.478 115.727C241.478 114.468 241.267 113.405 240.846 112.538C240.429 111.672 239.863 111.016 239.148 110.571C238.438 110.126 237.643 109.903 236.762 109.903C235.881 109.903 235.084 110.126 234.369 110.571C233.658 111.016 233.093 111.672 232.671 112.538C232.254 113.405 232.046 114.468 232.046 115.727C232.046 116.987 232.254 118.05 232.671 118.916C233.093 119.783 233.658 120.438 234.369 120.884C235.084 121.329 235.881 121.551 236.762 121.551C237.643 121.551 238.438 121.329 239.148 120.884C239.863 120.438 240.429 119.783 240.846 118.916C241.267 118.05 241.478 116.987 241.478 115.727ZM248.144 123V108.455H253.059C254.195 108.455 255.128 108.649 255.857 109.037C256.586 109.42 257.126 109.948 257.477 110.621C257.827 111.293 258.002 112.058 258.002 112.915C258.002 113.772 257.827 114.532 257.477 115.195C257.126 115.857 256.589 116.378 255.864 116.757C255.14 117.131 254.214 117.318 253.087 117.318H249.11V115.727H253.031C253.807 115.727 254.432 115.614 254.906 115.386C255.384 115.159 255.729 114.837 255.942 114.42C256.16 113.999 256.269 113.497 256.269 112.915C256.269 112.332 256.16 111.823 255.942 111.388C255.725 110.952 255.377 110.616 254.898 110.379C254.42 110.138 253.788 110.017 253.002 110.017H249.906V123H248.144ZM254.991 116.466L258.57 123H256.525L253.002 116.466H254.991ZM262.142 110.017V108.455H273.051V110.017H268.477V123H266.716V110.017H262.142ZM285.991 123H284.144L289.485 108.455H291.303L296.644 123H294.798L290.451 110.756H290.337L285.991 123ZM286.673 117.318H294.116V118.881H286.673V117.318ZM312.444 108.455V123H310.739L302.813 111.58H302.671V123H300.91V108.455H302.614L310.569 119.903H310.711V108.455H312.444ZM322.457 123H317.968V108.455H322.656C324.067 108.455 325.274 108.746 326.278 109.328C327.282 109.906 328.051 110.737 328.586 111.821C329.121 112.901 329.389 114.193 329.389 115.699C329.389 117.214 329.119 118.518 328.579 119.612C328.039 120.701 327.253 121.539 326.221 122.126C325.189 122.709 323.934 123 322.457 123ZM319.73 121.438H322.343C323.546 121.438 324.543 121.205 325.333 120.741C326.124 120.277 326.714 119.617 327.102 118.76C327.49 117.903 327.684 116.883 327.684 115.699C327.684 114.525 327.493 113.514 327.109 112.666C326.725 111.814 326.153 111.161 325.39 110.706C324.628 110.247 323.679 110.017 322.542 110.017H319.73V121.438ZM341.968 123V108.455H343.73V121.438H350.491V123H341.968ZM366.925 115.727C366.925 117.261 366.648 118.587 366.094 119.705C365.54 120.822 364.78 121.684 363.814 122.29C362.848 122.896 361.745 123.199 360.504 123.199C359.264 123.199 358.161 122.896 357.195 122.29C356.229 121.684 355.469 120.822 354.915 119.705C354.361 118.587 354.084 117.261 354.084 115.727C354.084 114.193 354.361 112.867 354.915 111.75C355.469 110.633 356.229 109.771 357.195 109.165C358.161 108.559 359.264 108.256 360.504 108.256C361.745 108.256 362.848 108.559 363.814 109.165C364.78 109.771 365.54 110.633 366.094 111.75C366.648 112.867 366.925 114.193 366.925 115.727ZM365.22 115.727C365.22 114.468 365.009 113.405 364.588 112.538C364.171 111.672 363.606 111.016 362.891 110.571C362.18 110.126 361.385 109.903 360.504 109.903C359.624 109.903 358.826 110.126 358.111 110.571C357.401 111.016 356.835 111.672 356.413 112.538C355.997 113.405 355.788 114.468 355.788 115.727C355.788 116.987 355.997 118.05 356.413 118.916C356.835 119.783 357.401 120.438 358.111 120.884C358.826 121.329 359.624 121.551 360.504 121.551C361.385 121.551 362.18 121.329 362.891 120.884C363.606 120.438 364.171 119.783 364.588 118.916C365.009 118.05 365.22 116.987 365.22 115.727ZM381.83 113C381.673 112.522 381.467 112.093 381.212 111.714C380.961 111.331 380.66 111.004 380.31 110.734C379.964 110.464 379.571 110.259 379.131 110.116C378.69 109.974 378.207 109.903 377.682 109.903C376.82 109.903 376.036 110.126 375.331 110.571C374.625 111.016 374.064 111.672 373.648 112.538C373.231 113.405 373.023 114.468 373.023 115.727C373.023 116.987 373.233 118.05 373.655 118.916C374.076 119.783 374.647 120.438 375.366 120.884C376.086 121.329 376.896 121.551 377.795 121.551C378.629 121.551 379.363 121.374 379.997 121.018C380.636 120.659 381.134 120.152 381.489 119.499C381.848 118.84 382.028 118.066 382.028 117.176L382.568 117.29H378.193V115.727H383.733V117.29C383.733 118.488 383.477 119.529 382.966 120.415C382.459 121.3 381.759 121.987 380.864 122.474C379.973 122.957 378.951 123.199 377.795 123.199C376.508 123.199 375.376 122.896 374.401 122.29C373.43 121.684 372.672 120.822 372.128 119.705C371.588 118.587 371.318 117.261 371.318 115.727C371.318 114.577 371.472 113.542 371.78 112.624C372.092 111.7 372.533 110.914 373.101 110.266C373.669 109.617 374.341 109.12 375.118 108.774C375.894 108.429 376.749 108.256 377.682 108.256C378.449 108.256 379.164 108.372 379.827 108.604C380.494 108.831 381.089 109.155 381.609 109.577C382.135 109.993 382.573 110.493 382.923 111.075C383.274 111.653 383.515 112.295 383.648 113H381.83ZM390.511 108.455V123H388.75V108.455H390.511ZM403.997 112.091C403.912 111.371 403.566 110.812 402.96 110.415C402.354 110.017 401.611 109.818 400.73 109.818C400.086 109.818 399.523 109.922 399.04 110.131C398.562 110.339 398.188 110.625 397.918 110.99C397.652 111.355 397.52 111.769 397.52 112.233C397.52 112.621 397.612 112.955 397.797 113.234C397.986 113.509 398.228 113.739 398.521 113.923C398.815 114.103 399.123 114.252 399.445 114.371C399.767 114.484 400.062 114.577 400.332 114.648L401.81 115.045C402.188 115.145 402.61 115.282 403.074 115.457C403.543 115.633 403.99 115.872 404.416 116.175C404.847 116.473 405.202 116.857 405.482 117.325C405.761 117.794 405.901 118.369 405.901 119.051C405.901 119.837 405.695 120.547 405.283 121.182C404.875 121.816 404.279 122.321 403.493 122.695C402.712 123.069 401.762 123.256 400.645 123.256C399.603 123.256 398.701 123.088 397.939 122.751C397.181 122.415 396.585 121.946 396.149 121.345C395.718 120.744 395.474 120.045 395.418 119.25H397.236C397.283 119.799 397.468 120.254 397.79 120.614C398.116 120.969 398.528 121.234 399.026 121.409C399.527 121.58 400.067 121.665 400.645 121.665C401.317 121.665 401.921 121.556 402.456 121.338C402.991 121.116 403.415 120.808 403.727 120.415C404.04 120.017 404.196 119.553 404.196 119.023C404.196 118.54 404.061 118.147 403.791 117.844C403.521 117.541 403.166 117.295 402.726 117.105C402.286 116.916 401.81 116.75 401.298 116.608L399.509 116.097C398.372 115.77 397.473 115.304 396.81 114.697C396.147 114.091 395.815 113.298 395.815 112.318C395.815 111.504 396.036 110.794 396.476 110.188C396.921 109.577 397.518 109.103 398.266 108.767C399.018 108.426 399.859 108.256 400.787 108.256C401.724 108.256 402.558 108.424 403.287 108.76C404.016 109.091 404.594 109.546 405.02 110.124C405.451 110.701 405.678 111.357 405.702 112.091H403.997ZM410.001 110.017V108.455H420.91V110.017H416.336V123H414.575V110.017H410.001ZM427.39 108.455V123H425.629V108.455H427.39ZM444.626 113H442.865C442.761 112.493 442.578 112.048 442.318 111.665C442.062 111.281 441.75 110.959 441.38 110.699C441.016 110.434 440.611 110.235 440.166 110.102C439.721 109.97 439.257 109.903 438.774 109.903C437.893 109.903 437.095 110.126 436.38 110.571C435.67 111.016 435.104 111.672 434.683 112.538C434.266 113.405 434.058 114.468 434.058 115.727C434.058 116.987 434.266 118.05 434.683 118.916C435.104 119.783 435.67 120.438 436.38 120.884C437.095 121.329 437.893 121.551 438.774 121.551C439.257 121.551 439.721 121.485 440.166 121.352C440.611 121.22 441.016 121.023 441.38 120.763C441.75 120.498 442.062 120.173 442.318 119.79C442.578 119.402 442.761 118.956 442.865 118.455H444.626C444.493 119.198 444.252 119.863 443.902 120.45C443.551 121.037 443.116 121.537 442.595 121.949C442.074 122.356 441.489 122.666 440.841 122.879C440.197 123.092 439.508 123.199 438.774 123.199C437.533 123.199 436.43 122.896 435.464 122.29C434.498 121.684 433.738 120.822 433.184 119.705C432.63 118.587 432.353 117.261 432.353 115.727C432.353 114.193 432.63 112.867 433.184 111.75C433.738 110.633 434.498 109.771 435.464 109.165C436.43 108.559 437.533 108.256 438.774 108.256C439.508 108.256 440.197 108.362 440.841 108.575C441.489 108.788 442.074 109.101 442.595 109.513C443.116 109.92 443.551 110.417 443.902 111.004C444.252 111.587 444.493 112.252 444.626 113ZM457.427 112.091C457.342 111.371 456.996 110.812 456.39 110.415C455.784 110.017 455.04 109.818 454.16 109.818C453.516 109.818 452.952 109.922 452.469 110.131C451.991 110.339 451.617 110.625 451.347 110.99C451.082 111.355 450.95 111.769 450.95 112.233C450.95 112.621 451.042 112.955 451.227 113.234C451.416 113.509 451.657 113.739 451.951 113.923C452.245 114.103 452.552 114.252 452.874 114.371C453.196 114.484 453.492 114.577 453.762 114.648L455.239 115.045C455.618 115.145 456.04 115.282 456.504 115.457C456.972 115.633 457.42 115.872 457.846 116.175C458.277 116.473 458.632 116.857 458.911 117.325C459.191 117.794 459.33 118.369 459.33 119.051C459.33 119.837 459.124 120.547 458.712 121.182C458.305 121.816 457.709 122.321 456.923 122.695C456.141 123.069 455.192 123.256 454.075 123.256C453.033 123.256 452.131 123.088 451.369 122.751C450.611 122.415 450.014 121.946 449.579 121.345C449.148 120.744 448.904 120.045 448.847 119.25H450.665C450.713 119.799 450.897 120.254 451.219 120.614C451.546 120.969 451.958 121.234 452.455 121.409C452.957 121.58 453.497 121.665 454.075 121.665C454.747 121.665 455.351 121.556 455.886 121.338C456.421 121.116 456.844 120.808 457.157 120.415C457.469 120.017 457.626 119.553 457.626 119.023C457.626 118.54 457.491 118.147 457.221 117.844C456.951 117.541 456.596 117.295 456.156 117.105C455.715 116.916 455.239 116.75 454.728 116.608L452.938 116.097C451.802 115.77 450.902 115.304 450.239 114.697C449.576 114.091 449.245 113.298 449.245 112.318C449.245 111.504 449.465 110.794 449.906 110.188C450.351 109.577 450.947 109.103 451.695 108.767C452.448 108.426 453.289 108.256 454.217 108.256C455.154 108.256 455.987 108.424 456.717 108.76C457.446 109.091 458.023 109.546 458.45 110.124C458.88 110.701 459.108 111.357 459.131 112.091H457.427Z" fill="black"/>
</g>
<defs>
<clipPath id="clip0_785_389">
<rect width="492" height="139" fill="white"/>
</clipPath>
</defs>
</svg>
